<?xml version="1.0" encoding="UTF-8"?>
<svg id="Camada_2" data-name="Camada 2" xmlns="http://www.w3.org/2000/svg" viewBox="0 0 196.4 145.3">
  <defs>
    <style>
      .cls-1 {
        fill: #020202;
        stroke-width: 0px;
      }
    </style>
  </defs>
  <g id="Objects_2" data-name="Objects 2">
    <path class="cls-1" d="m196.38,20.31C196.38,8.54,187.81,0,176.01,0h-54.75c-33.53,0-67.06,0-100.59,0C8.5.02,0,8.5,0,20.64,0,55.43,0,90.21,0,125c0,11.76,8.57,20.29,20.37,20.3h122.93c10.86,0,21.71,0,32.57,0,11.88-.01,20.51-8.62,20.51-20.47.02-34.84.02-69.68,0-104.51ZM21.24,131.17l17.65-14.54c13.07-10.77,26.15-21.53,39.2-32.33,3.63,3.08,7.35,6.15,10.94,9.12,1.37,1.13,2.75,2.27,4.12,3.41,1.71,1.42,3.36,2.1,5.05,2.1s3.36-.7,5.09-2.13l3.43-2.85c3.8-3.15,7.72-6.4,11.57-9.64,12.39,10.23,24.79,20.45,37.19,30.66l19.65,16.2c-21.25,0-42.5,0-63.75,0h-57.49c-10.89,0-21.77,0-32.67,0Zm-.85-119.56l.04,2.5c4.29.02,8.58.02,12.87.02h98.25c14.8,0,29.6,0,44.4-.02,1.49,0,2.71.32,3.76.99-8.2,6.75-16.49,13.63-24.51,20.29l-15.69,13.01c-13.78,11.43-27.56,22.85-41.32,34.3C73.6,62.25,46.92,40.13,16.68,15.11c1.07-.68,2.28-1,3.71-1v-2.5h0Zm161.88,19.65v87.48c-7.49-6.16-14.99-12.33-22.48-18.5-10.16-8.36-20.32-16.73-30.49-25.08,14.7-12.17,29.4-24.35,44.09-36.54l8.88-7.37Zm-115.22,43.9c-17.64,14.53-35.28,29.06-52.92,43.58V31.27c.65.53,1.28,1.06,1.92,1.59,17,14.1,34,28.2,51,42.31Z"/>
  </g>
</svg>