<?xml version="1.0" encoding="UTF-8"?>
<svg id="Camada_2" data-name="Camada 2" xmlns="http://www.w3.org/2000/svg" viewBox="0 0 52.61 52.61">
  <defs>
    <style>
      .cls-1 {
        fill: #202146;
        stroke-width: 0px;
      }
    </style>
  </defs>
  <g id="Objects_2" data-name="Objects 2">
    <path class="cls-1" d="m28.4,1.69l3.73,17.14c.18.82.82,1.46,1.64,1.64l17.14,3.73c2.26.49,2.26,3.71,0,4.2l-17.14,3.73c-.82.18-1.46.82-1.64,1.64l-3.73,17.14c-.49,2.26-3.71,2.26-4.2,0l-3.73-17.14c-.18-.82-.82-1.46-1.64-1.64L1.69,28.4c-2.26-.49-2.26-3.71,0-4.2l17.14-3.73c.82-.18,1.46-.82,1.64-1.64L24.2,1.69c.49-2.26,3.71-2.26,4.2,0Z"/>
  </g>
</svg>