<?xml version="1.0" encoding="UTF-8"?>
<svg id="Camada_2" data-name="Camada 2" xmlns="http://www.w3.org/2000/svg" viewBox="0 0 176.58 176.55">
  <defs>
    <style>
      .cls-1 {
        fill: #020202;
        stroke-width: 0px;
      }
    </style>
  </defs>
  <g id="Objects_2" data-name="Objects 2">
    <g>
      <path class="cls-1" d="m0,88.09c0-11.96,0-23.92,0-35.87,0-10.15,1.86-19.87,7.07-28.7C14.84,10.36,26.69,3.29,41.53.81,45.56.13,49.62,0,53.7,0c23.52.02,47.04.02,70.56,0,10.15,0,19.88,1.85,28.64,7.18,13.01,7.93,20.4,19.69,22.88,34.63.63,3.83.8,7.7.8,11.58-.02,23.59-.01,47.17,0,70.76,0,10.28-1.83,20.14-7.18,29.06-7.61,12.69-19.14,19.63-33.46,22.34-3.89.73-7.82.98-11.77.99-23.92,0-47.83,0-71.75,0-10.86,0-21.14-2.24-30.33-8.27-12.46-8.16-19.24-19.92-21.41-34.5C.13,130.2,0,126.59,0,122.97c0-11.63,0-23.26,0-34.89ZM85.91,16.35c-11.01.2-24.68-.46-38.34.27-18.06.96-30.83,13.92-31.02,32.03-.28,26.34-.17,52.69,0,79.04.04,7.21,2.13,14.01,6.56,19.85,6.68,8.8,16.09,12.38,26.66,12.49,25.69.27,51.38.24,77.07.01,10.38-.09,19.57-3.71,26.38-11.97,5.6-6.78,7.66-14.78,7.65-23.44-.02-24.25,0-48.49,0-72.74,0-2.3-.08-4.6-.48-6.87-2.05-11.55-7.55-20.6-18.65-25.52-5.37-2.38-11.08-3.14-16.9-3.15-12.09-.01-24.18,0-38.92,0Z"/>
      <path class="cls-1" d="m88.26,133.54c-25.19-.01-45.58-20.43-45.58-45.65,0-24.98,20.57-45.55,45.55-45.56,24.98,0,45.7,20.75,45.66,45.72-.04,24.95-20.66,45.5-45.62,45.49Zm-.04-16.44c15.96.04,29.16-13.06,29.24-29.02.08-16.05-13.06-29.29-29.11-29.34-15.94-.05-29.17,13.08-29.24,29.01-.08,16.06,13.07,29.31,29.11,29.34Z"/>
      <path class="cls-1" d="m145.96,41.38c-.06,5.74-4.77,10.32-10.51,10.23-5.64-.09-10.19-4.78-10.12-10.43.06-5.63,4.73-10.27,10.33-10.26,5.69.02,10.37,4.76,10.31,10.46Z"/>
    </g>
  </g>
</svg>