<?xml version="1.0" encoding="UTF-8"?>
<svg id="Camada_2" data-name="Camada 2" xmlns="http://www.w3.org/2000/svg" viewBox="0 0 181.92 182.7">
  <defs>
    <style>
      .cls-1 {
        fill: #020202;
        stroke-width: 0px;
      }
    </style>
  </defs>
  <g id="Objects_2" data-name="Objects 2">
    <g>
      <path class="cls-1" d="m0,182.69c4.19-15.34,8.35-30.58,12.55-45.82.22-.81.08-1.41-.3-2.08-4.11-7.26-7.1-14.97-9.04-23.08-2.1-8.8-2.83-17.72-2.28-26.76.75-12.38,3.86-24.14,9.55-35.15C21.16,29.14,37.35,14.48,59.03,6,71.14,1.27,83.74-.7,96.71.22c29.26,2.07,52.32,15.3,69.27,39.14,7.69,10.82,12.49,22.93,14.64,36.01,3.18,19.36.55,37.94-8.23,55.53-8.66,17.36-21.66,30.59-38.73,39.78-8.98,4.83-18.56,7.95-28.65,9.49-8.35,1.27-16.71,1.38-25.07.31-10.9-1.39-21.23-4.63-30.94-9.81-.71-.38-1.33-.45-2.1-.24-15.51,4.1-31.03,8.18-46.54,12.26-.09.02-.19,0-.36,0Zm21.72-21.51c.36-.06.56-.08.75-.13,8.9-2.33,17.79-4.65,26.68-7.01.79-.21,1.38-.11,2.06.31,13.44,8.25,28.02,12.16,43.81,11.43,10.03-.47,19.66-2.72,28.62-7.23,23.62-11.88,37.79-30.86,42.12-57.02,1.5-9.1,1.08-18.2-.92-27.19-3.26-14.71-10.25-27.44-21.18-37.79-18.42-17.46-40.37-24.11-65.37-20.04-16.24,2.64-30.22,10.13-41.38,22.2-18.97,20.51-24.91,44.56-18.21,71.67,1.98,8.03,5.6,15.38,10.13,22.28.36.55.46,1.03.27,1.67-.81,2.81-1.55,5.63-2.32,8.45-1.67,6.08-3.34,12.17-5.05,18.4Z"/>
      <path class="cls-1" d="m115.24,134.06c-4.8.21-8.92-1.23-13.09-2.56-15.95-5.06-28.76-14.65-39.53-27.2-4.45-5.19-8.61-10.61-12.04-16.54-2.43-4.21-4.29-8.68-4.96-13.55-1.11-8.06.86-15.21,6.37-21.29.99-1.09,1.95-2.23,3.26-2.99,1.25-.73,2.57-1.16,4.01-1.17,1.55-.01,3.1.11,4.65.04,1.99-.09,3.29.87,4.09,2.55.91,1.91,1.69,3.87,2.51,5.82,1.76,4.18,3.48,8.37,5.25,12.54.62,1.46.58,2.81-.13,4.26-1.38,2.8-3.45,5.04-5.53,7.29-1.8,1.96-1.96,2.81-.6,5.08,6.33,10.55,14.73,18.91,25.89,24.32,1.66.8,3.35,1.55,5.04,2.29,2.08.91,3.23.64,4.72-1.1,2.43-2.84,4.85-5.68,7.02-8.73,1.06-1.49,2.1-1.84,3.86-1.3,2.58.78,4.96,2.07,7.38,3.23,3.88,1.86,7.71,3.82,11.59,5.65,1.65.78,2.34,1.9,2.27,3.73-.12,3.06-.66,6.02-1.79,8.85-1.04,2.59-3.11,4.36-5.32,5.94-4.56,3.26-9.54,5.23-14.92,4.84Z"/>
    </g>
  </g>
</svg>